<svg xmlns="http://www.w3.org/2000/svg" version="1.1" xmlns:xlink="http://www.w3.org/1999/xlink" xmlns:svgjs="http://svgjs.dev/svgjs" width="1000" height="1000" viewBox="0 0 1000 1000"><rect width="1000" height="1000" fill="#ffffff"></rect><g transform="matrix(0.7,0,0,0.7,149.57575757575756,421.3612932869558)"><svg viewBox="0 0 396 89" data-background-color="#ffffff" preserveAspectRatio="xMidYMid meet" height="224" width="1000" xmlns="http://www.w3.org/2000/svg" xmlns:xlink="http://www.w3.org/1999/xlink"><g id="tight-bounds" transform="matrix(1,0,0,1,0.2400000000000091,0.13549041748046875)"><svg viewBox="0 0 395.52 88.729016049086" height="88.729016049086" width="395.52"><g><svg viewBox="0 0 540.2074628911781 121.1874915167561" height="88.729016049086" width="395.52"><g transform="matrix(1,0,0,1,144.68746289117814,35.70772242857954)"><svg viewBox="0 0 395.52 49.772046659597024" height="49.772046659597024" width="395.52"><g id="textblocktransform"><svg viewBox="0 0 395.52 49.772046659597024" height="49.772046659597024" width="395.52" id="textblock"><g><svg viewBox="0 0 395.52 49.772046659597024" height="49.772046659597024" width="395.52"><g transform="matrix(1,0,0,1,0,0)"><svg width="395.52" viewBox="5.699999809265137 -35.29999923706055 282.8799743652344 35.599998474121094" height="49.772046659597024" data-palette-color="url(#17d8c487-1272-47f0-8b3c-6e07b9340abf)"></svg></g></svg></g></svg></g></svg></g><g><svg viewBox="0 0 121.1874915167561 121.1874915167561" height="121.1874915167561" width="121.1874915167561"><g><svg></svg></g><g id="icon-0"><svg viewBox="0 0 121.1874915167561 121.1874915167561" height="121.1874915167561" width="121.1874915167561"><g></g><g transform="matrix(1,0,0,1,25.528256614780503,39.83897670669461)"><svg viewBox="0 0 70.13097828719509 41.50953810336688" height="41.50953810336688" width="70.13097828719509"><g><svg version="1.1" xmlns="http://www.w3.org/2000/svg" xmlns:xlink="http://www.w3.org/1999/xlink" x="0" y="0" viewBox="0.49900001287460327 2.497999906539917 99.9990005493164 59.1879997253418" enable-background="new 0.499 2.498 100 59.188" xml:space="preserve" width="70.13097828719509" height="41.50953810336688" class="icon-s-0" data-fill-palette-color="accent" id="s-0"></svg></g></svg></g></svg></g></svg></g></svg></g><defs></defs><mask id="6cda3c98-0b5f-40bd-aec8-908e842f86ef"><g id="SvgjsG1818"><svg viewBox="0 0 395.52 88.729016049086" height="88.729016049086" width="395.52"><g><svg viewBox="0 0 540.2074628911781 121.1874915167561" height="88.729016049086" width="395.52"><g transform="matrix(1,0,0,1,144.68746289117814,35.70772242857954)"><svg viewBox="0 0 395.52 49.772046659597024" height="49.772046659597024" width="395.52"><g id="SvgjsG1817"><svg viewBox="0 0 395.52 49.772046659597024" height="49.772046659597024" width="395.52" id="SvgjsSvg1816"><g><svg viewBox="0 0 395.52 49.772046659597024" height="49.772046659597024" width="395.52"><g transform="matrix(1,0,0,1,0,0)"><svg width="395.52" viewBox="5.699999809265137 -35.29999923706055 282.8799743652344 35.599998474121094" height="49.772046659597024" data-palette-color="url(#17d8c487-1272-47f0-8b3c-6e07b9340abf)"><path d="M27.75-18.05Q31.2-17.3 33.08-15.08 34.95-12.85 34.95-9.35L34.95-9.35Q34.95-4.85 31.63-2.43 28.3 0 21.8 0L21.8 0 5.7 0 5.7-35 20.8-35Q26.65-35 29.88-32.65 33.1-30.3 33.1-26L33.1-26Q33.1-23.1 31.68-21.08 30.25-19.05 27.75-18.05L27.75-18.05ZM20.55-31.95L9.4-31.95 9.4-19.25 20.55-19.25Q24.8-19.25 27.1-20.88 29.4-22.5 29.4-25.6L29.4-25.6Q29.4-28.7 27.1-30.33 24.8-31.95 20.55-31.95L20.55-31.95ZM21.75-3.05Q26.45-3.05 28.85-4.65 31.25-6.25 31.25-9.65L31.25-9.65Q31.25-16.2 21.75-16.2L21.75-16.2 9.4-16.2 9.4-3.05 21.75-3.05ZM58.7 0.3Q53.5 0.3 49.27-2.02 45.05-4.35 42.67-8.4 40.3-12.45 40.3-17.5L40.3-17.5Q40.3-22.55 42.67-26.6 45.05-30.65 49.27-32.98 53.5-35.3 58.7-35.3L58.7-35.3Q63.9-35.3 68.07-33 72.25-30.7 74.65-26.63 77.05-22.55 77.05-17.5L77.05-17.5Q77.05-12.45 74.65-8.38 72.25-4.3 68.07-2 63.9 0.3 58.7 0.3L58.7 0.3ZM58.7-3Q62.85-3 66.2-4.88 69.55-6.75 71.45-10.08 73.35-13.4 73.35-17.5L73.35-17.5Q73.35-21.6 71.45-24.93 69.55-28.25 66.2-30.13 62.85-32 58.7-32L58.7-32Q54.55-32 51.17-30.13 47.8-28.25 45.87-24.93 43.95-21.6 43.95-17.5L43.95-17.5Q43.95-13.4 45.87-10.08 47.8-6.75 51.17-4.88 54.55-3 58.7-3L58.7-3ZM100.65 0.3Q95.45 0.3 91.22-2.02 87-4.35 84.62-8.4 82.25-12.45 82.25-17.5L82.25-17.5Q82.25-22.55 84.62-26.6 87-30.65 91.22-32.98 95.45-35.3 100.65-35.3L100.65-35.3Q105.85-35.3 110.02-33 114.2-30.7 116.6-26.63 119-22.55 119-17.5L119-17.5Q119-12.45 116.6-8.38 114.2-4.3 110.02-2 105.85 0.3 100.65 0.3L100.65 0.3ZM100.65-3Q104.8-3 108.15-4.88 111.5-6.75 113.4-10.08 115.3-13.4 115.3-17.5L115.3-17.5Q115.3-21.6 113.4-24.93 111.5-28.25 108.15-30.13 104.8-32 100.65-32L100.65-32Q96.5-32 93.12-30.13 89.75-28.25 87.82-24.93 85.9-21.6 85.9-17.5L85.9-17.5Q85.9-13.4 87.82-10.08 89.75-6.75 93.12-4.88 96.5-3 100.65-3L100.65-3ZM152.44 0L138.14-16.45 130.99-9.2 130.99 0 127.29 0 127.29-35 130.99-35 130.99-13.85 151.54-35 155.79-35 140.64-19.15 156.84 0 152.44 0ZM185.94-6.8L187.34-4Q185.19-1.95 181.62-0.83 178.04 0.3 173.69 0.3L173.69 0.3Q169.09 0.3 165.87-0.95 162.64-2.2 161.02-4.4 159.39-6.6 159.39-9.45L159.39-9.45Q159.39-12.6 161.27-14.8 163.14-17 166.19-17.85L166.19-17.85Q163.69-18.8 162.29-20.88 160.89-22.95 160.89-25.75L160.89-25.75Q160.89-28.4 162.42-30.58 163.94-32.75 167.02-34.02 170.09-35.3 174.44-35.3L174.44-35.3Q177.64-35.3 180.67-34.58 183.69-33.85 185.84-32.5L185.84-32.5 184.69-29.55Q180.09-32.15 174.59-32.15L174.59-32.15Q169.74-32.15 167.17-30.3 164.59-28.45 164.59-25.5L164.59-25.5Q164.59-22.55 166.67-20.95 168.74-19.35 172.54-19.35L172.54-19.35 181.24-19.35 181.24-16.15 172.39-16.15Q168.09-16.15 165.59-14.53 163.09-12.9 163.09-9.7L163.09-9.7Q163.09-6.55 165.82-4.7 168.54-2.85 173.84-2.85L173.84-2.85Q177.54-2.85 180.74-3.9 183.94-4.95 185.94-6.8L185.94-6.8ZM207.09-35.3Q213.89-35.3 217.81-31.33 221.74-27.35 221.74-19.85L221.74-19.85 221.74 0 218.09 0 218.09-10.3 196.09-10.3 196.09 0 192.49 0 192.49-19.85Q192.49-27.35 196.41-31.33 200.34-35.3 207.09-35.3L207.09-35.3ZM196.09-13.5L218.09-13.5 218.09-20.2Q218.09-26.05 215.19-29.03 212.29-32 207.09-32L207.09-32Q201.89-32 198.99-29.03 196.09-26.05 196.09-20.2L196.09-20.2 196.09-13.5ZM242.49 0.3Q238.59 0.3 235.01-0.95 231.44-2.2 229.49-4.25L229.49-4.25 230.94-7.1Q232.84-5.2 235.99-4.03 239.14-2.85 242.49-2.85L242.49-2.85Q247.19-2.85 249.54-4.58 251.89-6.3 251.89-9.05L251.89-9.05Q251.89-11.15 250.61-12.4 249.34-13.65 247.49-14.33 245.64-15 242.34-15.8L242.34-15.8Q238.39-16.8 236.04-17.73 233.69-18.65 232.01-20.55 230.34-22.45 230.34-25.7L230.34-25.7Q230.34-28.35 231.74-30.53 233.14-32.7 236.04-34 238.94-35.3 243.24-35.3L243.24-35.3Q246.24-35.3 249.11-34.48 251.99-33.65 254.09-32.2L254.09-32.2 252.84-29.25Q250.64-30.7 248.14-31.43 245.64-32.15 243.24-32.15L243.24-32.15Q238.64-32.15 236.31-30.38 233.99-28.6 233.99-25.8L233.99-25.8Q233.99-23.7 235.26-22.43 236.54-21.15 238.46-20.48 240.39-19.8 243.64-19L243.64-19Q247.49-18.05 249.86-17.13 252.24-16.2 253.89-14.33 255.54-12.45 255.54-9.25L255.54-9.25Q255.54-6.6 254.11-4.42 252.69-2.25 249.74-0.98 246.79 0.3 242.49 0.3L242.49 0.3ZM287.18-6.8L288.58-4Q286.43-1.95 282.86-0.83 279.28 0.3 274.93 0.3L274.93 0.3Q270.33 0.3 267.11-0.95 263.88-2.2 262.26-4.4 260.63-6.6 260.63-9.45L260.63-9.45Q260.63-12.6 262.51-14.8 264.38-17 267.43-17.85L267.43-17.85Q264.93-18.8 263.53-20.88 262.13-22.95 262.13-25.75L262.13-25.75Q262.13-28.4 263.66-30.58 265.18-32.75 268.26-34.02 271.33-35.3 275.68-35.3L275.68-35.3Q278.88-35.3 281.91-34.58 284.93-33.85 287.08-32.5L287.08-32.5 285.93-29.55Q281.33-32.15 275.83-32.15L275.83-32.15Q270.98-32.15 268.41-30.3 265.83-28.45 265.83-25.5L265.83-25.5Q265.83-22.55 267.91-20.95 269.98-19.35 273.78-19.35L273.78-19.35 282.48-19.35 282.48-16.15 273.63-16.15Q269.33-16.15 266.83-14.53 264.33-12.9 264.33-9.7L264.33-9.7Q264.33-6.55 267.06-4.7 269.78-2.85 275.08-2.85L275.08-2.85Q278.78-2.85 281.98-3.9 285.18-4.95 287.18-6.8L287.18-6.8Z" opacity="1" transform="matrix(1,0,0,1,0,0)" fill="white" class="wordmark-text-0" id="SvgjsPath1815"></path></svg></g></svg></g></svg></g></svg></g><g><svg viewBox="0 0 121.1874915167561 121.1874915167561" height="121.1874915167561" width="121.1874915167561"><g><svg></svg></g><g id="SvgjsG1814"><svg viewBox="0 0 121.1874915167561 121.1874915167561" height="121.1874915167561" width="121.1874915167561"><g></g><g transform="matrix(1,0,0,1,25.528256614780503,39.83897670669461)"><svg viewBox="0 0 70.13097828719509 41.50953810336688" height="41.50953810336688" width="70.13097828719509"><g><svg version="1.1" xmlns="http://www.w3.org/2000/svg" xmlns:xlink="http://www.w3.org/1999/xlink" x="0" y="0" viewBox="0.49900001287460327 2.497999906539917 99.9990005493164 59.1879997253418" enable-background="new 0.499 2.498 100 59.188" xml:space="preserve" width="70.13097828719509" height="41.50953810336688" class="icon-s-0" data-fill-palette-color="accent" id="SvgjsSvg1813"></svg></g></svg></g></svg></g></svg></g></svg></g><defs></defs></svg></g></mask><linearGradient x1="0.054" x2="0.941" y1="0.5" y2="0.5" id="17d8c487-1272-47f0-8b3c-6e07b9340abf"><stop stop-color="#0f3054" offset="0"></stop><stop stop-color="#3b8dcb" offset="0.498"></stop><stop stop-color="#0f3054" offset="1"></stop></linearGradient><rect width="395.5199890136719" height="88.72901916503906" fill="#000000" mask="url(#6cda3c98-0b5f-40bd-aec8-908e842f86ef)" data-fill-palette-color="primary"></rect><mask id="088f6f17-801f-418f-aa90-879dfd1e58dd"><g id="SvgjsG1829"><svg viewBox="0 0 395.52 88.729016049086" height="88.729016049086" width="395.52"><g><svg viewBox="0 0 540.2074628911781 121.1874915167561" height="88.729016049086" width="395.52"><g transform="matrix(1,0,0,1,144.68746289117814,35.70772242857954)"><svg viewBox="0 0 395.52 49.772046659597024" height="49.772046659597024" width="395.52"><g id="SvgjsG1828"><svg viewBox="0 0 395.52 49.772046659597024" height="49.772046659597024" width="395.52" id="SvgjsSvg1827"><g><svg viewBox="0 0 395.52 49.772046659597024" height="49.772046659597024" width="395.52"><g transform="matrix(1,0,0,1,0,0)"><svg width="395.52" viewBox="5.699999809265137 -35.29999923706055 282.8799743652344 35.599998474121094" height="49.772046659597024" data-palette-color="url(#17d8c487-1272-47f0-8b3c-6e07b9340abf)"></svg></g></svg></g></svg></g></svg></g><g><svg viewBox="0 0 121.1874915167561 121.1874915167561" height="121.1874915167561" width="121.1874915167561"><g><svg></svg></g><g id="SvgjsG1826"><svg viewBox="0 0 121.1874915167561 121.1874915167561" height="121.1874915167561" width="121.1874915167561"><g><path d="M0 60.594c0-33.465 27.129-60.594 60.594-60.594 33.465 0 60.594 27.129 60.593 60.594 0 33.465-27.129 60.594-60.593 60.593-33.465 0-60.594-27.129-60.594-60.593zM60.594 116.699c30.986 0 56.105-25.119 56.105-56.105 0-30.986-25.119-56.105-56.105-56.105-30.986 0-56.105 25.119-56.105 56.105 0 30.986 25.119 56.105 56.105 56.105z" fill="white" stroke="transparent"></path></g><g transform="matrix(1,0,0,1,25.528256614780503,39.83897670669461)"><svg viewBox="0 0 70.13097828719509 41.50953810336688" height="41.50953810336688" width="70.13097828719509"><g><svg version="1.1" xmlns="http://www.w3.org/2000/svg" xmlns:xlink="http://www.w3.org/1999/xlink" x="0" y="0" viewBox="0.49900001287460327 2.497999906539917 99.9990005493164 59.1879997253418" enable-background="new 0.499 2.498 100 59.188" xml:space="preserve" width="70.13097828719509" height="41.50953810336688" class="icon-s-0" data-fill-palette-color="accent" id="SvgjsSvg1825"><path d="M81.05 2.544l-0.053 35.374-3.941-0.006 0.037-23.646L59.356 14.24 59.315 42.11l-8.659-0.013 0.06-39.573L31.27 2.498 31.218 37.87l-3.941-0.007 0.036-23.646L9.578 14.192 9.536 42.061l-9.008-0.014L0.499 61.563l50.13 0.075v-0.027l49.778 0.075 0.091-59.112L81.05 2.544zM2.367 48.51v-4.745h4.745l0.001 4.745H2.367zM16.277 28.71h-4.745v-4.746h4.745V28.71zM16.277 20.854h-4.745v-4.745h4.745V20.854zM25.113 36.564h-4.746v-4.746h4.746V36.564zM25.113 28.71h-4.746v-4.746h4.746V28.71zM25.113 20.854h-4.746v-4.745h4.746V20.854zM39.104 48.674h-4.746v-4.745h4.746V48.674zM39.104 40.819h-4.746v-4.746h4.746V40.819zM39.104 32.965h-4.746v-4.746h4.746V32.965zM39.104 25.11h-4.746v-4.747h4.746V25.11zM39.104 17.254h-4.746v-4.747h4.746V17.254zM39.104 9.4h-4.746V4.654h4.746V9.4zM47.94 40.819h-4.745v-4.746h4.745V40.819zM47.94 32.965h-4.745v-4.746h4.745V32.965zM47.94 25.11h-4.745v-4.747h4.745V25.11zM47.94 17.254h-4.745v-4.747h4.745V17.254zM47.94 9.4h-4.745V4.654h4.745V9.4zM56.893 48.557h-4.748v-4.744h4.748V48.557zM66.057 28.758H61.31v-4.746h4.747V28.758zM66.057 20.903H61.31v-4.745h4.747V20.903zM74.892 36.612h-4.745v-4.745h4.745V36.612zM74.892 28.758h-4.745v-4.746h4.745V28.758zM74.892 20.903h-4.745v-4.745h4.745V20.903zM88.884 48.724h-4.746v-4.747h4.746V48.724zM88.884 40.868h-4.746v-4.746h4.746V40.868zM88.884 33.013h-4.746v-4.746h4.746V33.013zM88.884 25.158h-4.746v-4.746h4.746V25.158zM88.884 17.304h-4.746v-4.747h4.746V17.304zM88.884 9.449h-4.746V4.704h4.746V9.449zM97.721 40.868h-4.747v-4.746h4.747V40.868zM97.721 33.013h-4.747v-4.746h4.747V33.013zM97.721 25.158h-4.747v-4.746h4.747V25.158zM97.721 17.304h-4.747v-4.747h4.747V17.304zM97.721 9.449h-4.747V4.704h4.747V9.449z" fill="white"></path></svg></g></svg></g></svg></g></svg></g></svg></g><defs></defs><mask><g id="SvgjsG1824"><svg viewBox="0 0 395.52 88.729016049086" height="88.729016049086" width="395.52"><g><svg viewBox="0 0 540.2074628911781 121.1874915167561" height="88.729016049086" width="395.52"><g transform="matrix(1,0,0,1,144.68746289117814,35.70772242857954)"><svg viewBox="0 0 395.52 49.772046659597024" height="49.772046659597024" width="395.52"><g id="SvgjsG1823"><svg viewBox="0 0 395.52 49.772046659597024" height="49.772046659597024" width="395.52" id="SvgjsSvg1822"><g><svg viewBox="0 0 395.52 49.772046659597024" height="49.772046659597024" width="395.52"><g transform="matrix(1,0,0,1,0,0)"><svg width="395.52" viewBox="5.699999809265137 -35.29999923706055 282.8799743652344 35.599998474121094" height="49.772046659597024" data-palette-color="url(#17d8c487-1272-47f0-8b3c-6e07b9340abf)"></svg></g></svg></g></svg></g></svg></g><g><svg viewBox="0 0 121.1874915167561 121.1874915167561" height="121.1874915167561" width="121.1874915167561"><g><svg></svg></g><g id="SvgjsG1820"><svg viewBox="0 0 121.1874915167561 121.1874915167561" height="121.1874915167561" width="121.1874915167561"><g></g><g transform="matrix(1,0,0,1,25.528256614780503,39.83897670669461)"><svg viewBox="0 0 70.13097828719509 41.50953810336688" height="41.50953810336688" width="70.13097828719509"><g><svg version="1.1" xmlns="http://www.w3.org/2000/svg" xmlns:xlink="http://www.w3.org/1999/xlink" x="0" y="0" viewBox="0.49900001287460327 2.497999906539917 99.9990005493164 59.1879997253418" enable-background="new 0.499 2.498 100 59.188" xml:space="preserve" width="70.13097828719509" height="41.50953810336688" class="icon-s-0" data-fill-palette-color="accent" id="SvgjsSvg1819"></svg></g></svg></g></svg></g></svg></g></svg></g><defs></defs></svg></g></mask></svg></g></mask><linearGradient x1="0.054" x2="0.941" y1="0.5" y2="0.5" id="aa5b9891-4fc6-4beb-acda-bf87a367513e"><stop stop-color="#0f3054" offset="0"></stop><stop stop-color="#3b8dcb" offset="0.498"></stop><stop stop-color="#0f3054" offset="1"></stop></linearGradient><rect width="395.5199890136719" height="88.72901916503906" fill="#000000" mask="url(#088f6f17-801f-418f-aa90-879dfd1e58dd)" data-fill-palette-color="accent"></rect></svg><rect width="395.52" height="88.729016049086" fill="none" stroke="none" visibility="hidden"></rect></g></svg></g></svg>